<svg id="Layer_1" data-name="Layer 1" xmlns="http://www.w3.org/2000/svg" viewBox="0 0 691 470"><defs><style>.cls-1,.cls-2{fill:#fff;}.cls-1{fill-rule:evenodd;}</style></defs><path class="cls-1" d="M25.81,31H77.6a6.36,6.36,0,1,1,0,12.71H25.81a6.36,6.36,0,0,1,0-12.71Z"/><path class="cls-2" d="M51.75,70a21,21,0,0,0-21,21v24a21,21,0,0,0,42,0V91A21,21,0,0,0,51.75,70Zm16,45a16,16,0,0,1-32,0V91a16,16,0,0,1,32,0Z"/><path class="cls-2" d="M51.75,83.4a2.48,2.48,0,0,0-2.5,2.5v7.3a2.5,2.5,0,0,0,5,0V85.9A2.54,2.54,0,0,0,51.75,83.4Z"/><path class="cls-2" d="M49.85,226.29a4.65,4.65,0,0,1-4.6-4.6v-20.9H24.35a4.65,4.65,0,0,1-4.6-4.6v-3.8a4.65,4.65,0,0,1,4.6-4.6h20.9v-20.9a4.65,4.65,0,0,1,4.6-4.6h3.8a4.65,4.65,0,0,1,4.6,4.6v20.9h20.9a4.65,4.65,0,0,1,4.6,4.6v3.8a4.65,4.65,0,0,1-4.6,4.6H58.25v20.9a4.65,4.65,0,0,1-4.6,4.6Z"/></svg>