<svg id="Layer_1" data-name="Layer 1" xmlns="http://www.w3.org/2000/svg" viewBox="0 0 168 108"><defs><style>.cls-1{fill:#fff;}</style></defs><polygon class="cls-1" points="18.08 53.87 18.08 49.02 22.46 49.02 22.46 46.54 11.77 46.54 11.77 49.02 15.99 49.02 15.99 53.87 11.77 53.87 11.77 56.34 22.46 56.34 22.46 53.87 18.08 53.87"/><polygon class="cls-1" points="20.48 35.73 20.48 41.55 18 41.55 18 36.59 16.08 36.59 16.08 41.55 13.76 41.55 13.76 35.93 11.77 35.93 11.77 44.01 22.46 44.01 22.46 35.73 20.48 35.73"/><polygon class="cls-1" points="86.25 49.76 89.63 49.76 89.45 49.5 86.23 49.73 86.25 49.76"/><polygon class="cls-1" points="91.86 49.76 95.01 49.76 95.01 49.1 91.86 49.32 91.86 49.76"/><polygon class="cls-1" points="108.1 49.76 110.68 49.76 110.68 47.96 106.85 48.24 108.1 49.76"/><polygon class="cls-1" points="98.23 49.76 101.33 49.76 101.33 48.64 98.23 48.86 98.23 49.76"/><polygon class="cls-1" points="32.56 49.76 38.44 36.18 35.31 36.18 31.13 45.88 26.99 36.18 23.6 36.18 29.46 49.76 32.56 49.76"/><polygon class="cls-1" points="50.08 47.24 42.69 47.24 42.69 44.1 49 44.1 49 41.65 42.69 41.65 42.69 38.7 49.83 38.7 49.83 36.18 39.57 36.18 39.57 49.76 45.36 49.76 50.08 49.42 50.08 47.24"/><polygon class="cls-1" points="58.54 38.74 62.89 38.74 62.89 36.18 51.05 36.18 51.05 38.74 55.4 38.74 55.4 49.03 58.54 48.81 58.54 38.74"/><polygon class="cls-1" points="75.09 47.24 67.7 47.24 67.7 44.1 74.01 44.1 74.01 41.65 67.7 41.65 67.7 38.7 74.84 38.7 74.84 36.18 64.58 36.18 64.58 48.37 75.09 47.61 75.09 47.24"/><path class="cls-1" d="M83.63,46l.67,1,3.2-.23-.92-1.31a4.42,4.42,0,0,0,2.8-4.29c0-3-2.27-4.93-5.9-4.93H77.6V47.43l3.14-.23V46m0-7.24H83.3c1.92,0,2.89.88,2.89,2.37s-1,2.37-2.89,2.37H80.74Z"/><polygon class="cls-1" points="95.01 36.18 91.86 36.18 91.86 46.39 95.01 46.16 95.01 36.18"/><polygon class="cls-1" points="101.33 41.52 104.58 45.47 110.68 45.03 110.68 36.18 107.58 36.18 107.58 44.43 100.83 36.18 98.23 36.18 98.23 45.93 101.33 45.71 101.33 41.52"/><polygon class="cls-1" points="124.05 49.76 127.35 49.76 126.05 46.85 122.94 47.07 124.05 49.76"/><polygon class="cls-1" points="112.12 49.76 115.34 49.76 116.25 47.56 113 47.79 112.12 49.76"/><polygon class="cls-1" points="117.55 44.47 119.71 39.27 121.76 44.23 124.78 44.01 121.28 36.18 118.17 36.18 114.35 44.76 118.44 44.47 117.55 44.47"/><polygon class="cls-1" points="137.42 49.76 140.8 49.76 138.15 45.97 134.96 46.2 137.42 49.76"/><path class="cls-1" d="M131.91,43.48V38.74h2.56c1.92,0,2.89.88,2.89,2.37a2.09,2.09,0,0,1-1.31,2.08l4.18-.3a5.08,5.08,0,0,0,.32-1.78c0-3-2.27-4.93-5.9-4.93h-5.88v7.54l3.33-.24Z"/><polygon class="cls-1" points="128.77 49.76 131.91 49.76 131.91 46.42 128.77 46.65 128.77 49.76"/><polygon class="cls-1" points="146.21 49.76 149.36 49.76 149.36 45.16 146.21 45.39 146.21 49.76"/><polygon class="cls-1" points="154.63 36.18 151.55 36.18 147.92 42.22 144.29 36.18 140.96 36.18 144.8 42.56 151.07 42.1 154.63 36.18"/><path class="cls-1" d="M56.44,56.29l4.09-.3a7.15,7.15,0,0,0-2-.29A3.11,3.11,0,0,0,56.44,56.29Z"/><polygon class="cls-1" points="44.33 57.16 44.87 57.12 44.61 56.49 44.33 57.16"/><path class="cls-1" d="M31.53,55.85a4.35,4.35,0,0,1,3.41,1.59l2-1.86a7,7,0,0,0-5.59-2.41,7,7,0,0,0-7.2,5.45l3.37-.24A4.14,4.14,0,0,1,31.53,55.85Z"/><path class="cls-1" d="M31.36,67.22A7,7,0,0,0,37,64.79l-2-1.86a4.3,4.3,0,0,1-3.41,1.61,4.12,4.12,0,0,1-4.2-3.21l-3.2.23A7,7,0,0,0,31.36,67.22Z"/><polygon class="cls-1" points="46.76 61.69 42.45 61.69 43.08 60.19 39.95 60.41 37.02 66.99 40.24 66.99 41.45 64.08 47.75 64.08 48.95 66.99 52.25 66.99 49.02 59.76 46.05 59.97 46.76 61.69"/><polygon class="cls-1" points="44.61 56.49 44.87 57.12 47.75 56.91 46.18 53.41 43.08 53.41 41.3 57.38 44.33 57.16 44.61 56.49"/><path class="cls-1" d="M58.58,55.7a7.15,7.15,0,0,1,2,.29l2.19-.16.59-1.45a9,9,0,0,0-4.71-1.21c-3.36,0-5.21,1.46-5.63,3.37l3.47-.25A3.11,3.11,0,0,1,58.58,55.7Z"/><path class="cls-1" d="M60.77,63.24c0,.84-.75,1.46-2.62,1.46a8,8,0,0,1-4.48-1.42l-1.06,2.37a9.66,9.66,0,0,0,5.52,1.57c3.88,0,5.77-1.94,5.77-4.21,0-2.81-2.51-3.49-4.7-4l-5.7.41C55.35,62,60.77,61.13,60.77,63.24Z"/><polygon class="cls-1" points="66.05 66.99 76.57 66.99 76.57 64.46 69.18 64.46 69.18 61.32 75.48 61.32 75.48 58.88 69.18 58.88 69.18 58.3 66.05 58.52 66.05 66.99"/><polygon class="cls-1" points="76.31 53.41 66.05 53.41 66.05 55.59 76.31 54.84 76.31 53.41"/><path class="cls-1" d="M81.43,57.41l-3.13.22c.26,4.74,7.87,3.11,7.87,5.61,0,.84-.75,1.46-2.62,1.46a8,8,0,0,1-4.48-1.42L78,65.65a9.67,9.67,0,0,0,5.53,1.57c3.88,0,5.76-1.94,5.76-4.21C89.3,58.14,81.79,59.66,81.43,57.41Z"/><path class="cls-1" d="M84,53.17a6.45,6.45,0,0,0-4.5,1.44L88,54A9.68,9.68,0,0,0,84,53.17Z"/><path class="cls-1" d="M11.77,67h2V63.57h8.67V61.81l-10.69.87Z"/><path class="cls-1" d="M13.79,57.67h-2v2l2-.15Z"/></svg>